<mxfile host="app.diagrams.net" modified="2022-12-13T13:17:19.653Z" agent="5.0 (Macintosh; Intel Mac OS X 10_15_7) AppleWebKit/537.36 (KHTML, like Gecko) Chrome/108.0.0.0 Safari/537.36" etag="ei_I1BfX-aI6iQ4uS5tX" version="20.6.2" type="github">
  <diagram id="6a731a19-8d31-9384-78a2-239565b7b9f0" name="Page-1">
    <mxGraphModel dx="1003" dy="798" grid="1" gridSize="10" guides="1" tooltips="1" connect="1" arrows="1" fold="1" page="1" pageScale="1" pageWidth="1169" pageHeight="827" background="none" math="0" shadow="0">
      <root>
        <mxCell id="0" />
        <mxCell id="1" parent="0" />
        <mxCell id="2" value="&lt;b&gt;&lt;font style=&quot;font-size: 16px;&quot;&gt;开始执行&lt;/font&gt;&lt;/b&gt;" style="shape=mxgraph.flowchart.terminator;strokeWidth=3;gradientDirection=north;fontStyle=0;html=1;fillColor=#f5f5f5;fontColor=#333333;strokeColor=#666666;" parent="1" vertex="1">
          <mxGeometry x="260" y="60" width="120" height="30" as="geometry" />
        </mxCell>
        <mxCell id="3" value="&lt;b&gt;&lt;font style=&quot;font-size: 16px;&quot;&gt;初始化基础全局变量&lt;/font&gt;&lt;/b&gt;" style="shape=mxgraph.flowchart.data;strokeWidth=3;gradientDirection=north;fontStyle=0;html=1;fillColor=#f5f5f5;fontColor=#333333;strokeColor=#666666;" parent="1" vertex="1">
          <mxGeometry x="220" y="130" width="200" height="80" as="geometry" />
        </mxCell>
        <mxCell id="4" value="&lt;b&gt;&lt;font style=&quot;font-size: 16px;&quot;&gt;接受用户输入&lt;/font&gt;&lt;/b&gt;" style="shape=mxgraph.flowchart.data;strokeWidth=3;gradientDirection=north;fontStyle=0;html=1;fillColor=#f5f5f5;fontColor=#333333;strokeColor=#666666;" parent="1" vertex="1">
          <mxGeometry x="240.5" y="510" width="159" height="80" as="geometry" />
        </mxCell>
        <mxCell id="5" value="&lt;b&gt;&lt;font style=&quot;font-size: 16px;&quot;&gt;检测游戏回合数&lt;/font&gt;&lt;/b&gt;" style="shape=mxgraph.flowchart.data;strokeWidth=3;gradientDirection=north;fontStyle=0;html=1;fillColor=#f5f5f5;fontColor=#333333;strokeColor=#666666;" parent="1" vertex="1">
          <mxGeometry x="240.5" y="250" width="159" height="80" as="geometry" />
        </mxCell>
        <mxCell id="6" value="&lt;b&gt;&lt;font style=&quot;font-size: 16px;&quot;&gt;生成数学题&lt;/font&gt;&lt;/b&gt;" style="shape=mxgraph.flowchart.decision;strokeWidth=3;gradientDirection=north;fontStyle=0;html=1;fillColor=#f5f5f5;fontColor=#333333;strokeColor=#666666;" parent="1" vertex="1">
          <mxGeometry x="250" y="390" width="140" height="70" as="geometry" />
        </mxCell>
        <mxCell id="7" style="fontStyle=1;strokeColor=#666666;strokeWidth=3;html=1;fillColor=#f5f5f5;" parent="1" source="2" target="3" edge="1">
          <mxGeometry relative="1" as="geometry" />
        </mxCell>
        <mxCell id="8" style="fontStyle=1;strokeColor=#666666;strokeWidth=3;html=1;fillColor=#f5f5f5;" parent="1" source="3" target="5" edge="1">
          <mxGeometry relative="1" as="geometry" />
        </mxCell>
        <mxCell id="9" style="entryX=0.5;entryY=0;entryPerimeter=0;fontStyle=1;strokeColor=#666666;strokeWidth=3;html=1;fillColor=#f5f5f5;" parent="1" source="5" target="6" edge="1">
          <mxGeometry relative="1" as="geometry" />
        </mxCell>
        <mxCell id="12" value="" style="edgeStyle=elbowEdgeStyle;elbow=horizontal;fontColor=#001933;fontStyle=1;strokeColor=#666666;strokeWidth=3;html=1;fillColor=#f5f5f5;" parent="1" source="6" target="4" edge="1">
          <mxGeometry width="100" height="100" as="geometry">
            <mxPoint y="100" as="sourcePoint" />
            <mxPoint x="100" as="targetPoint" />
          </mxGeometry>
        </mxCell>
        <mxCell id="17" value="" style="edgeStyle=elbowEdgeStyle;elbow=horizontal;fontStyle=1;strokeColor=#666666;strokeWidth=3;html=1;fillColor=#f5f5f5;" parent="1" source="4" edge="1">
          <mxGeometry width="100" height="100" as="geometry">
            <mxPoint y="100" as="sourcePoint" />
            <mxPoint x="320" y="640" as="targetPoint" />
          </mxGeometry>
        </mxCell>
        <mxCell id="24" value="&lt;b&gt;&lt;font style=&quot;font-size: 16px;&quot;&gt;判题结果&lt;/font&gt;&lt;/b&gt;" style="shape=mxgraph.flowchart.decision;strokeWidth=3;gradientDirection=north;fontStyle=0;html=1;fillColor=#f5f5f5;fontColor=#333333;strokeColor=#666666;" parent="1" vertex="1">
          <mxGeometry x="261.5" y="640" width="119" height="78.5" as="geometry" />
        </mxCell>
        <mxCell id="28" value="&lt;b&gt;&lt;font style=&quot;font-size: 16px;&quot;&gt;记录分数统计&lt;/font&gt;&lt;/b&gt;" style="shape=mxgraph.flowchart.decision;strokeWidth=3;gradientDirection=north;fontStyle=0;html=1;fillColor=#f5f5f5;fontColor=#333333;strokeColor=#666666;" parent="1" vertex="1">
          <mxGeometry x="256" y="810" width="130" height="100" as="geometry" />
        </mxCell>
        <mxCell id="30" value="" style="edgeStyle=elbowEdgeStyle;elbow=horizontal;exitX=0.5;exitY=1;exitPerimeter=0;fontStyle=1;strokeColor=#666666;strokeWidth=3;html=1;fillColor=#f5f5f5;" parent="1" source="24" target="28" edge="1">
          <mxGeometry width="100" height="100" as="geometry">
            <mxPoint y="100" as="sourcePoint" />
            <mxPoint x="100" as="targetPoint" />
          </mxGeometry>
        </mxCell>
        <mxCell id="35" value="" style="edgeStyle=elbowEdgeStyle;elbow=vertical;exitX=0.5;exitY=1;exitPerimeter=0;fontColor=#001933;fontStyle=1;strokeColor=#666666;strokeWidth=3;html=1;fillColor=#f5f5f5;entryX=0.5;entryY=0;entryDx=0;entryDy=0;entryPerimeter=0;" parent="1" source="28" target="38" edge="1">
          <mxGeometry width="100" height="100" as="geometry">
            <mxPoint y="100" as="sourcePoint" />
            <mxPoint x="320" y="990" as="targetPoint" />
            <Array as="points">
              <mxPoint x="320" y="950" />
            </Array>
          </mxGeometry>
        </mxCell>
        <mxCell id="38" value="&lt;b&gt;&lt;font style=&quot;font-size: 16px;&quot;&gt;检测回合数是否完成&lt;/font&gt;&lt;/b&gt;" style="shape=mxgraph.flowchart.data;strokeWidth=3;gradientDirection=north;fontStyle=0;html=1;fillColor=#f5f5f5;fontColor=#333333;strokeColor=#666666;" parent="1" vertex="1">
          <mxGeometry x="220.25" y="990" width="199.5" height="80" as="geometry" />
        </mxCell>
        <mxCell id="40" value="&lt;b&gt;&lt;font style=&quot;font-size: 16px;&quot;&gt;输出分数信息&lt;/font&gt;&lt;/b&gt;" style="shape=mxgraph.flowchart.terminator;strokeWidth=3;gradientDirection=north;fontStyle=0;html=1;fillColor=#f5f5f5;fontColor=#333333;strokeColor=#666666;" parent="1" vertex="1">
          <mxGeometry x="261" y="1170" width="120" height="30" as="geometry" />
        </mxCell>
        <mxCell id="43" value="" style="edgeStyle=elbowEdgeStyle;elbow=vertical;exitX=0.5;exitY=1;exitPerimeter=0;fontStyle=1;strokeColor=#666666;strokeWidth=3;html=1;fillColor=#f5f5f5;" parent="1" source="38" edge="1">
          <mxGeometry width="100" height="100" as="geometry">
            <mxPoint y="100" as="sourcePoint" />
            <mxPoint x="320" y="1160" as="targetPoint" />
            <Array as="points" />
          </mxGeometry>
        </mxCell>
        <mxCell id="45" value="" style="edgeStyle=elbowEdgeStyle;elbow=horizontal;exitX=1;exitY=0.5;exitPerimeter=0;fontStyle=1;strokeColor=#666666;strokeWidth=3;html=1;entryX=1;entryY=0.5;entryDx=0;entryDy=0;entryPerimeter=0;fillColor=#f5f5f5;" parent="1" source="24" target="28" edge="1">
          <mxGeometry width="100" height="100" as="geometry">
            <mxPoint y="100" as="sourcePoint" />
            <mxPoint x="390" y="1000" as="targetPoint" />
            <Array as="points">
              <mxPoint x="480" y="770" />
              <mxPoint x="560" y="1120" />
              <mxPoint x="950" y="1320" />
            </Array>
          </mxGeometry>
        </mxCell>
        <mxCell id="51" value="&lt;b&gt;&lt;font style=&quot;font-size: 16px;&quot;&gt;输出提示信息&lt;/font&gt;&lt;/b&gt;" style="shape=mxgraph.flowchart.paper_tape;strokeWidth=3;gradientDirection=north;fontStyle=0;html=1;fillColor=#f5f5f5;fontColor=#333333;strokeColor=#666666;" parent="1" vertex="1">
          <mxGeometry x="410" y="729" width="150" height="81" as="geometry" />
        </mxCell>
        <mxCell id="54" value="" style="edgeStyle=elbowEdgeStyle;elbow=horizontal;entryX=0.095;entryY=0.5;entryPerimeter=0;fontStyle=1;strokeColor=#666666;strokeWidth=3;html=1;fillColor=#f5f5f5;" parent="1" source="38" target="5" edge="1">
          <mxGeometry width="100" height="100" as="geometry">
            <mxPoint x="240" y="1020" as="sourcePoint" />
            <mxPoint x="100" as="targetPoint" />
            <Array as="points">
              <mxPoint x="120" y="970" />
            </Array>
          </mxGeometry>
        </mxCell>
        <mxCell id="Hsm2RTbHr1hreQE6kz3H-56" value="&lt;b&gt;NO&lt;/b&gt;" style="text;html=1;align=center;verticalAlign=middle;resizable=0;points=[];autosize=1;strokeColor=none;fillColor=none;fontSize=22;" vertex="1" parent="1">
          <mxGeometry x="399.5" y="640" width="60" height="40" as="geometry" />
        </mxCell>
        <mxCell id="Hsm2RTbHr1hreQE6kz3H-57" value="&lt;b&gt;YES&lt;/b&gt;" style="text;html=1;align=center;verticalAlign=middle;resizable=0;points=[];autosize=1;strokeColor=none;fillColor=none;fontSize=22;" vertex="1" parent="1">
          <mxGeometry x="252" y="740" width="70" height="40" as="geometry" />
        </mxCell>
      </root>
    </mxGraphModel>
  </diagram>
</mxfile>
